<svg width="24" height="25" viewBox="0 0 24 25" fill="none" xmlns="http://www.w3.org/2000/svg">
<g clip-path="url(#clip0_2928_140)">
<path d="M22.383 6.156C21.6196 6.4937 20.81 6.71548 19.981 6.814C20.8548 6.29144 21.5087 5.46902 21.821 4.5C21.001 4.988 20.102 5.33 19.165 5.515C18.5356 4.84158 17.7014 4.39497 16.792 4.24459C15.8826 4.09421 14.9489 4.24849 14.1363 4.68346C13.3236 5.11842 12.6774 5.80969 12.2981 6.6498C11.9188 7.4899 11.8277 8.43178 12.039 9.329C10.3761 9.24566 8.74933 8.81353 7.26429 8.06067C5.77924 7.30781 4.46913 6.25105 3.419 4.959C3.04729 5.59745 2.85196 6.32323 2.853 7.062C2.853 8.512 3.591 9.793 4.713 10.543C4.04901 10.5221 3.39963 10.3428 2.819 10.02V10.072C2.8192 11.0377 3.15337 11.9736 3.76485 12.7211C4.37633 13.4685 5.22748 13.9815 6.174 14.173C5.55761 14.34 4.91131 14.3647 4.284 14.245C4.55087 15.0762 5.07101 15.8032 5.77159 16.3241C6.47218 16.845 7.31813 17.1338 8.191 17.15C7.32348 17.8313 6.33018 18.335 5.26788 18.6322C4.20558 18.9294 3.09513 19.0143 2 18.882C3.9117 20.1114 6.1371 20.7641 8.41 20.762C16.103 20.762 20.31 14.389 20.31 8.862C20.31 8.682 20.305 8.5 20.297 8.322C21.1159 7.73017 21.8226 6.99702 22.384 6.157L22.383 6.156Z" fill="#607B96"/>
</g>
<defs>
<clipPath id="clip0_2928_140">
<rect width="24" height="24" fill="white" transform="translate(0 0.5)"/>
</clipPath>
</defs>
</svg>
