<svg width="24" height="31" viewBox="0 0 24 31" fill="none" xmlns="http://www.w3.org/2000/svg">
<g clip-path="url(#clip0_64_2708)" filter="url(#filter0_dd_64_2708)">
<path d="M5 20.6519H19V22.6519H5V20.6519ZM12 18.6519C9.87827 18.6519 7.84344 17.809 6.34315 16.3087C4.84285 14.8084 4 12.7736 4 10.6519C4 8.53012 4.84285 6.49529 6.34315 4.995C7.84344 3.49471 9.87827 2.65186 12 2.65186C14.1217 2.65186 16.1566 3.49471 17.6569 4.995C19.1571 6.49529 20 8.53012 20 10.6519C20 12.7736 19.1571 14.8084 17.6569 16.3087C16.1566 17.809 14.1217 18.6519 12 18.6519Z" fill="#607B96"/>
</g>
<defs>
<filter id="filter0_dd_64_2708" x="-4" y="0.651855" width="32" height="32" filterUnits="userSpaceOnUse" color-interpolation-filters="sRGB">
<feFlood flood-opacity="0" result="BackgroundImageFix"/>
<feColorMatrix in="SourceAlpha" type="matrix" values="0 0 0 0 0 0 0 0 0 0 0 0 0 0 0 0 0 0 127 0" result="hardAlpha"/>
<feOffset dy="4"/>
<feGaussianBlur stdDeviation="2"/>
<feComposite in2="hardAlpha" operator="out"/>
<feColorMatrix type="matrix" values="0 0 0 0 0 0 0 0 0 0 0 0 0 0 0 0 0 0 0.25 0"/>
<feBlend mode="normal" in2="BackgroundImageFix" result="effect1_dropShadow_64_2708"/>
<feColorMatrix in="SourceAlpha" type="matrix" values="0 0 0 0 0 0 0 0 0 0 0 0 0 0 0 0 0 0 127 0" result="hardAlpha"/>
<feOffset dy="4"/>
<feGaussianBlur stdDeviation="2"/>
<feComposite in2="hardAlpha" operator="out"/>
<feColorMatrix type="matrix" values="0 0 0 0 0 0 0 0 0 0 0 0 0 0 0 0 0 0 0.25 0"/>
<feBlend mode="normal" in2="effect1_dropShadow_64_2708" result="effect2_dropShadow_64_2708"/>
<feBlend mode="normal" in="SourceGraphic" in2="effect2_dropShadow_64_2708" result="shape"/>
</filter>
<clipPath id="clip0_64_2708">
<rect width="24" height="24" fill="white" transform="translate(0 0.651855)"/>
</clipPath>
</defs>
</svg>
